<svg width="20" height="18" viewBox="0 0 20 18" fill="none" xmlns="http://www.w3.org/2000/svg">
<path d="M19.9402 8.22996C19.5702 5.75996 17.3202 3.99996 14.8202 3.99996H11.9502C11.4302 3.99996 11.0002 4.42996 11.0002 4.94996C11.0002 5.46996 11.4302 5.89996 11.9502 5.89996H14.8502C16.4502 5.89996 17.8902 7.03996 18.0702 8.62996C18.2402 10.06 17.4302 11.32 16.2202 11.85L17.6202 13.25C19.2502 12.23 20.2602 10.34 19.9402 8.22996ZM2.12019 0.559956C1.73019 0.169956 1.10019 0.169956 0.710195 0.559956C0.320195 0.949956 0.320195 1.57996 0.710195 1.96996L3.11019 4.36996C1.17019 5.16996 -0.159805 7.13996 0.0201948 9.40996C0.230195 12.05 2.59019 14 5.2302 14H8.05019C8.57019 14 9.00019 13.57 9.00019 13.05C9.00019 12.53 8.57019 12.1 8.05019 12.1H5.16019C3.53019 12.1 2.06019 10.91 1.91019 9.27996C1.76019 7.55996 3.0202 6.10996 4.66019 5.92996L6.7602 8.02996C6.3302 8.11996 6.0002 8.48996 6.0002 8.94996V9.04996C6.0002 9.56996 6.43019 9.99996 6.95019 9.99996H8.73019L11.0002 12.27V14H12.7302L16.0302 17.3C16.4202 17.69 17.0502 17.69 17.4402 17.3C17.8302 16.91 17.8302 16.28 17.4402 15.89L2.12019 0.559956ZM14.0002 8.94996C14.0002 8.42996 13.5702 7.99996 13.0502 7.99996H12.3902L13.8802 9.48996C13.9502 9.35996 14.0002 9.20996 14.0002 9.04996V8.94996Z" fill="#323232"/>
</svg>
