<svg width="19" height="18" viewBox="0 0 19 18" fill="none" xmlns="http://www.w3.org/2000/svg">
<path d="M9.99969 0C9.44969 0 8.99969 0.45 8.99969 1V9C8.99969 9.55 9.44969 10 9.99969 10C10.5497 10 10.9997 9.55 10.9997 9V1C10.9997 0.45 10.5497 0 9.99969 0ZM15.1397 2.86C14.7497 3.25 14.7597 3.86 15.1297 4.25C16.2597 5.45 16.9597 7.05 16.9997 8.82C17.0897 12.65 13.9197 15.95 10.0897 15.99C6.17969 16.05 2.99969 12.9 2.99969 9C2.99969 7.16 3.70969 5.49 4.86969 4.24C5.23969 3.85 5.23969 3.24 4.85969 2.86C4.45969 2.46 3.80969 2.47 3.42969 2.88C1.97969 4.42 1.06969 6.47 0.999686 8.74C0.859686 13.62 4.82969 17.84 9.70969 17.99C14.8097 18.15 18.9997 14.06 18.9997 8.99C18.9997 6.62 18.0797 4.48 16.5797 2.88C16.1997 2.47 15.5397 2.46 15.1397 2.86Z" fill="#FF0000"/>
</svg>
