<svg width="18" height="17" viewBox="0 0 18 17" fill="none" xmlns="http://www.w3.org/2000/svg">
<path d="M16.6503 6.04L11.8103 5.62L9.92032 1.17C9.58032 0.36 8.42032 0.36 8.08032 1.17L6.19032 5.63L1.36032 6.04C0.480317 6.11 0.120317 7.21 0.790317 7.79L4.46032 10.97L3.36032 15.69C3.16032 16.55 4.09032 17.23 4.85032 16.77L9.00032 14.27L13.1503 16.78C13.9103 17.24 14.8403 16.56 14.6403 15.7L13.5403 10.97L17.2103 7.79C17.8803 7.21 17.5303 6.11 16.6503 6.04ZM9.00032 12.4L5.24032 14.67L6.24032 10.39L2.92032 7.51L7.30032 7.13L9.00032 3.1L10.7103 7.14L15.0903 7.52L11.7703 10.4L12.7703 14.68L9.00032 12.4Z" fill="#fdd612"/>
</svg>
